<svg xmlns="http://www.w3.org/2000/svg" viewBox="0 0 52 52" id="exchange-user"><g fill="none" stroke="#000" stroke-linecap="round" stroke-linejoin="round" stroke-miterlimit="10" stroke-width="2"><path d="M34.11 25.97h12.48A3.41 3.41 0 0 1 50 29.377v9.952H30.7v-9.952a3.41 3.41 0 0 1 3.41-3.409z"></path><circle cx="40.35" cy="17.169" r="4.499"></circle><path d="M5.41 25.97h12.48a3.41 3.41 0 0 1 3.41 3.408v9.952H2v-9.952a3.41 3.41 0 0 1 3.41-3.409z"></path><circle cx="11.65" cy="17.169" r="4.499"></circle><path d="M18.427 7.57L14.42 6.389 15.714 2M37.563 6.462a21.8 21.8 0 00-23.126-.18"></path><g><path d="M33.555 44.43l4.008 1.181L36.269 50M14.42 45.538a21.8 21.8 0 0023.125.18"></path></g></g></svg>