<svg xmlns="http://www.w3.org/2000/svg" width="24" height="24" fill-rule="evenodd" stroke-linejoin="round" stroke-miterlimit="2" clip-rule="evenodd" id="payment-receipt"><path d="M564.024,385L569.024,385C569.576,385 570.024,384.552 570.024,384L570.024,378C570.024,375.792 568.231,374 566.024,374C566.024,374 558.137,374 554.024,374C551.815,374 550.024,375.791 550.024,378L550.024,393C550.024,393.404 550.267,393.769 550.641,393.924C551.014,394.079 551.444,393.993 551.73,393.708L554.026,391.415C554.026,391.415 556.309,393.706 556.309,393.706C556.496,393.894 556.75,394 557.016,394C557.281,394 557.536,393.895 557.723,393.708L560.023,391.413C560.023,391.413 562.317,393.707 562.317,393.707C562.603,393.993 563.033,394.079 563.406,393.924C563.78,393.769 564.024,393.404 564.024,393L564.024,385ZM562.56,376L554.024,376C552.919,376 552.024,376.895 552.024,378C552.024,378 552.024,390.588 552.024,390.588L553.321,389.292C553.509,389.105 553.764,389 554.029,389C554.295,389 554.549,389.106 554.736,389.294C554.736,389.294 557.019,391.585 557.019,391.585L559.317,389.292C559.708,388.902 560.341,388.903 560.731,389.293C560.731,389.293 562.024,390.586 562.024,390.586C562.024,390.586 562.024,378 562.024,378C562.024,377.272 562.219,376.589 562.56,376ZM556,378.172C555.582,378.319 555.198,378.559 554.879,378.879C554.316,379.441 554,380.204 554,381L554,381.002C554,382.658 555.342,384 556.998,384L557.002,384C557.553,384 558,384.447 558,384.998C558,384.998 558,385 558,385C558,385.265 557.895,385.52 557.707,385.707C557.52,385.895 557.265,386 557,386L554,386L554,388L556,388L556,389L558,389L558,387.828C558.418,387.681 558.802,387.441 559.121,387.121C559.684,386.559 560,385.796 560,385L560,384.998C560,383.342 558.658,382 557.002,382L556.998,382C556.447,382 556,381.553 556,381.002C556,381.002 556,381 556,381C556,380.735 556.105,380.48 556.293,380.293C556.48,380.105 556.735,380 557,380L560,380L560,378L558,378L558,377L556,377L556,378.172ZM564.024,383L568.024,383L568.024,378C568.024,376.896 567.128,376 566.024,376C564.92,376 564.024,376.896 564.024,378L564.024,383Z" transform="translate(-548 -372)"></path></svg>